<?xml version="1.0" encoding="utf-8"?>
<!-- Generator: Adobe Illustrator 20.1.0, SVG Export Plug-In . SVG Version: 6.00 Build 0)  -->
<svg version="1.1" id="Livello_1" xmlns="http://www.w3.org/2000/svg" xmlns:xlink="http://www.w3.org/1999/xlink" x="0px" y="0px"
	 viewBox="0 0 283.5 283.5" style="enable-background:new 0 0 283.5 283.5;" xml:space="preserve">
<style type="text/css">
	.st0{fill:#53A2DA;}
	.st1{fill:#FFFFFF;}
	.st2{fill:#13100D;}
</style>
<path class="st0" d="M164.9,106.5c-13.1-3.2-27.4,2-33.4,12.2v0c-5-1.5-5.2-2.7-8-3.4c-12.6-3-25.4,4.7-28.4,17.2
	c-3,12.6,4.6,25.2,17.2,28.3l37.1,9c17.5,4.2,35.2-6.5,39.5-24C193,128.3,182.4,110.7,164.9,106.5z"/>
<path class="st1" d="M135.6,152.9h-6c-0.5,0-0.9-0.3-1.1-0.7l-10.3-27.2c-0.3-0.7,0.3-1.5,1.1-1.5h9.8c0.5,0,0.9,0.3,1.1,0.8l3,8.6
	c0.4,1,1.8,1,2.1,0l3.1-8.6c0.2-0.5,0.6-0.8,1.1-0.8h4.9c0.5,0,0.9,0.3,1.1,0.8l3.1,8.5c0.4,1,1.8,1,2.1,0l2.8-8.4
	c0.2-0.5,0.6-0.8,1.1-0.8h9.9c0.8,0,1.3,0.8,1.1,1.5l-9.9,27.2c-0.2,0.4-0.6,0.7-1.1,0.7h-6c-0.5,0-0.9-0.3-1.1-0.7l-4.5-11.2
	c-0.4-1-1.7-1-2.1,0l-4.3,11.2C136.5,152.6,136.1,152.9,135.6,152.9z"/>
</svg>
